<?xml version="1.0" encoding="UTF-8"?>
<svg id="Layer_2" data-name="Layer 2" xmlns="http://www.w3.org/2000/svg" viewBox="0 0 525.7 572.62">
  <defs>
    <style>
      .cls-1 {
        stroke: #fff;
        stroke-width: 14.31px;
      }

      .cls-1, .cls-2 {
        stroke-miterlimit: 10;
      }

      .cls-1, .cls-3 {
        fill: #f4c420;
      }

      .cls-4 {
        fill: #fff;
      }

      .cls-2 {
        fill: none;
        stroke: #f4c420;
        stroke-width: 58.27px;
      }
    </style>
  </defs>
  <g id="Layer_1-2" data-name="Layer 1">
    <g>
      <g>
        <path class="cls-2" d="M72.91,360.7l62.53-15.64,17.74,76.93,1.41-.35c-.41-7.61,1.99-14.93,3.92-22.13l16.74-64.4,70.02-17.51-33.78,99.77,83.79,75.35-74.47,18.62-43.8-45.78c-5.45-5.85-12.71-11.01-15.93-17.92l-1.41.35,19.91,73.65-62.53,15.64-44.15-176.58Z"/>
        <path class="cls-2" d="M326.56,309.73l-21.77,82.29.99.5c4.66-7.19,9.64-14.62,15.38-21.06l39.12-44.75,34.71,17.49-20.44,82.96.99.5c4.32-6.94,8.98-14.13,14.21-20.4l38.96-46.07,47.11,23.73-106.75,102.49-39.51-19.9,19.92-74.93-1.49-.75c-3.74,6.2-7.24,12.31-11.81,17.68l-37.21,42.6-38.51-19.4,19.14-146.62,46.94,23.65Z"/>
      </g>
      <circle class="cls-3" cx="258.54" cy="258.54" r="258.54"/>
      <g>
        <path class="cls-4" d="M72.91,360.7l62.53-15.64,17.74,76.93,1.41-.35c-.41-7.61,1.99-14.93,3.92-22.13l16.74-64.4,70.02-17.51-33.78,99.77,83.79,75.35-74.47,18.62-43.8-45.78c-5.45-5.85-12.71-11.01-15.93-17.92l-1.41.35,19.91,73.65-62.53,15.64-44.15-176.58Z"/>
        <path class="cls-4" d="M326.56,309.73l-21.77,82.29.99.5c4.66-7.19,9.64-14.62,15.38-21.06l39.12-44.75,34.71,17.49-20.44,82.96.99.5c4.32-6.94,8.98-14.13,14.21-20.4l38.96-46.07,47.11,23.73-106.75,102.49-39.51-19.9,19.92-74.93-1.49-.75c-3.74,6.2-7.24,12.31-11.81,17.68l-37.21,42.6-38.51-19.4,19.14-146.62,46.94,23.65Z"/>
      </g>
      <g>
        <polygon class="cls-4" points="351.38 74.73 254.59 100.67 325.44 171.52 351.38 74.73"/>
        <circle class="cls-1" cx="210.4" cy="87.36" r="48.33"/>
        <circle class="cls-1" cx="247.41" cy="175.71" r="82.83"/>
        <path class="cls-1" d="M210.4,101.6s41.7-4.07,64.55,9.13c22.85,13.2,54.3,58.46,31.63,130.23"/>
        <circle class="cls-1" cx="339.6" cy="195.38" r="48.33"/>
        <circle class="cls-4" cx="198.97" cy="171.52" r="11.43"/>
        <path class="cls-1" d="M182.86,126.37s41.7-17.5,64.55-4.3c22.85,13.2,54.3,58.46,31.63,130.23"/>
        <circle class="cls-4" cx="225.96" cy="190.41" r="11.43"/>
      </g>
    </g>
  </g>
</svg>