<?xml version="1.0" encoding="UTF-8"?>
<svg id="Layer_2" data-name="Layer 2" xmlns="http://www.w3.org/2000/svg" viewBox="0 0 567.09 597.62">
  <defs>
    <style>
      .cls-1 {
        stroke-width: 14.31px;
      }

      .cls-1, .cls-2, .cls-3 {
        fill: #fff;
      }

      .cls-1, .cls-2, .cls-4 {
        stroke: #f4c420;
        stroke-miterlimit: 10;
      }

      .cls-2 {
        stroke-width: 50px;
      }

      .cls-4 {
        fill: none;
        stroke-width: 58.27px;
      }

      .cls-5 {
        fill: #f4c420;
      }
    </style>
  </defs>
  <g id="Layer_1-2" data-name="Layer 1">
    <g>
      <circle class="cls-2" cx="283.54" cy="283.54" r="258.54"/>
      <g>
        <path class="cls-4" d="M97.91,385.7l62.53-15.64,17.74,76.93,1.41-.35c-.41-7.61,1.99-14.93,3.92-22.13l16.74-64.4,70.02-17.51-33.78,99.77,83.79,75.35-74.47,18.62-43.8-45.78c-5.45-5.85-12.71-11.01-15.93-17.92l-1.41.35,19.91,73.65-62.53,15.64-44.15-176.58Z"/>
        <path class="cls-4" d="M351.56,334.73l-21.77,82.29.99.5c4.66-7.19,9.64-14.62,15.38-21.06l39.12-44.75,34.71,17.49-20.44,82.96.99.5c4.32-6.94,8.98-14.13,14.21-20.4l38.96-46.07,47.11,23.73-106.75,102.49-39.51-19.9,19.92-74.93-1.49-.75c-3.74,6.2-7.24,12.31-11.81,17.68l-37.21,42.6-38.51-19.4,19.14-146.62,46.94,23.65Z"/>
      </g>
      <g>
        <path class="cls-3" d="M97.91,385.7l62.53-15.64,17.74,76.93,1.41-.35c-.41-7.61,1.99-14.93,3.92-22.13l16.74-64.4,70.02-17.51-33.78,99.77,83.79,75.35-74.47,18.62-43.8-45.78c-5.45-5.85-12.71-11.01-15.93-17.92l-1.41.35,19.91,73.65-62.53,15.64-44.15-176.58Z"/>
        <path class="cls-3" d="M351.56,334.73l-21.77,82.29.99.5c4.66-7.19,9.64-14.62,15.38-21.06l39.12-44.75,34.71,17.49-20.44,82.96.99.5c4.32-6.94,8.98-14.13,14.21-20.4l38.96-46.07,47.11,23.73-106.75,102.49-39.51-19.9,19.92-74.93-1.49-.75c-3.74,6.2-7.24,12.31-11.81,17.68l-37.21,42.6-38.51-19.4,19.14-146.62,46.94,23.65Z"/>
      </g>
      <g>
        <polygon class="cls-5" points="376.38 99.73 279.59 125.67 350.44 196.52 376.38 99.73"/>
        <circle class="cls-1" cx="235.4" cy="112.36" r="48.33"/>
        <circle class="cls-1" cx="272.41" cy="200.71" r="82.83"/>
        <path class="cls-1" d="M235.4,126.6s41.7-4.07,64.55,9.13c22.85,13.2,54.3,58.46,31.63,130.23"/>
        <circle class="cls-1" cx="364.6" cy="220.38" r="48.33"/>
        <circle class="cls-5" cx="223.97" cy="196.52" r="11.43"/>
        <path class="cls-1" d="M207.86,151.37s41.7-17.5,64.55-4.3c22.85,13.2,54.3,58.46,31.63,130.23"/>
        <circle class="cls-5" cx="250.96" cy="215.41" r="11.43"/>
      </g>
    </g>
  </g>
</svg>