<?xml version="1.0" encoding="UTF-8"?>
<svg id="Layer_2" data-name="Layer 2" xmlns="http://www.w3.org/2000/svg" viewBox="0 0 1046.99 361.44">
  <defs>
    <style>
      .cls-1, .cls-2, .cls-3 {
        stroke: #fff;
        stroke-miterlimit: 10;
      }

      .cls-1, .cls-3 {
        fill: none;
        stroke-width: 20px;
      }

      .cls-4 {
        fill: #fff;
      }

      .cls-2 {
        stroke-width: 9.7px;
      }

      .cls-3 {
        stroke-dasharray: 11.6 11.6;
      }
    </style>
  </defs>
  <g id="Layer_1-2" data-name="Layer 1">
    <g>
      <path d="M917.69,361.44H71.03L5.21,148.82C-17.66,74.92,37.58,0,114.93,0h866.14l60.05,194.01c25.73,83.14-36.41,167.42-123.44,167.42Z"/>
      <g>
        <g>
          <g>
            <polygon class="cls-4" points="765.3 42.95 699.68 60.53 747.72 108.57 765.3 42.95"/>
            <circle class="cls-2" cx="669.72" cy="51.51" r="32.76"/>
            <circle class="cls-2" cx="694.81" cy="111.41" r="56.16"/>
            <path class="cls-2" d="M669.72,61.16s28.27-2.76,43.76,6.19c15.49,8.95,36.81,39.64,21.44,88.29"/>
            <circle class="cls-2" cx="757.31" cy="124.75" r="32.76"/>
            <circle class="cls-4" cx="661.97" cy="108.57" r="7.75"/>
            <path class="cls-2" d="M651.05,77.95s28.27-11.87,43.76-2.92,36.81,39.64,21.44,88.29"/>
            <circle class="cls-4" cx="680.27" cy="121.37" r="7.75"/>
          </g>
          <g>
            <path class="cls-1" d="M797.83,42.95c1.99-.47,3.95-.9,5.86-1.3"/>
            <path class="cls-3" d="M815.11,39.62c33.43-4.85,53.38,2.23,65.92,11.88,17.41,13.41,17.7,29.6,35.33,49.31,17.51,19.57,40.63,29.76,62.9,35.12"/>
            <path class="cls-1" d="M984.91,137.19c1.98.41,3.94.78,5.89,1.12"/>
          </g>
        </g>
        <g>
          <path class="cls-4" d="M79.9,73.48h37.97l-.85,46.51h.85c.85-4.41,3.27-8.25,5.4-12.09l18.77-34.42h42.53l-33.57,52.2,37.12,55.04h-45.23l-18.49-32.43c-2.28-4.12-5.69-8.11-6.54-12.52h-.85l.85,44.94h-37.97v-107.24Z"/>
          <path class="cls-4" d="M224.52,181.65l-40.98,4.69,24.83-110.79,42.82-4.9,50.21,102.2-40.98,4.69-5.05-12.88-29.25,3.35-1.59,13.64ZM245.69,140.15l-6.67-18.28c-1.65-4.39-2.89-8.97-4.11-13.42l-1.41.16-3.35,33.31,15.54-1.78Z"/>
          <path class="cls-4" d="M317.11,76.26l71.66,8.04-3.27,29.12-32.65-3.67-1.14,10.18,29.82,3.35-3.11,27.7-29.82-3.35-1.17,10.46,33.78,3.79-3.27,29.12-72.79-8.17,11.97-106.57Z"/>
          <path class="cls-4" d="M402.74,59.01l38.94-1.54,2.88,72.77,32.69-1.29,1.36,34.39-71.63,2.84-4.25-107.16Z"/>
          <path class="cls-4" d="M516.61,175.55l-40.6-7.29,55.64-98.96,42.42,7.62,18.7,112.31-40.6-7.29-1.14-13.79-28.98-5.21-5.44,12.61ZM548.81,141.88l-1.13-19.42c-.32-4.68-.19-9.43-.08-14.03l-1.4-.25-12.78,30.94,15.4,2.77Z"/>
          <path class="cls-4" d="M110.9,189.48l13.51,64h.85c.71-6.54,1.56-13.37,3.27-19.77l11.38-44.23h29.87l14.65,64h.85c.57-6.26,1.28-12.8,2.7-18.92l10.81-45.09h40.53l-37.83,107.24h-33.99l-12.23-58.31h-1.28c-.43,5.55-.71,10.95-1.99,16.21l-10.81,42.1h-33.14l-37.55-107.24h40.39Z"/>
          <path class="cls-4" d="M247.87,198h37.55v36.12h23.89v-36.12h37.55v107.24h-37.55v-37.26h-23.89v37.26h-37.55v-107.24Z"/>
          <path class="cls-4" d="M360.2,207.31l70.61-14.65,5.95,28.69-32.17,6.68,2.08,10.03,29.39-6.1,5.66,27.3-29.39,6.1,2.14,10.31,33.29-6.91,5.95,28.69-71.72,14.88-21.79-105.01Z"/>
          <path class="cls-4" d="M497.59,187.66l36.01,14.9-27.84,67.29,30.23,12.51-13.16,31.8-66.24-27.41,41-99.09Z"/>
          <path class="cls-4" d="M554.17,208.9h72.11v29.3h-32.85v10.24h30.01v27.88h-30.01v10.52h33.99v29.3h-73.25v-107.24Z"/>
          <path class="cls-4" d="M642.92,189.48h37.41l34.99,59.45h1.14c-1.56-8.96-3.27-18.21-3.27-27.31v-32.14h37.26v107.24h-37.26l-34.28-56.32h-1.14c1.28,7.4,2.42,14.37,2.42,21.48v34.85h-37.26v-107.24Z"/>
        </g>
      </g>
    </g>
  </g>
</svg>